<svg xmlns="http://www.w3.org/2000/svg" shape-rendering="geometricPrecision" text-rendering="geometricPrecision" image-rendering="optimizeQuality" fill-rule="evenodd" clip-rule="evenodd" viewBox="0 0 512 492.289" height="11" width="12"><defs><linearGradient id="prefix__a" gradientUnits="userSpaceOnUse" x1="258.396" y1="19.906" x2="258.4" y2="416.813"><stop offset="0" stop-color="#FFD433"/><stop offset=".471" stop-color="#FABE2B"/><stop offset="1" stop-color="#F4A722"/></linearGradient></defs><path fill="#F0B100" fill-rule="nonzero" d="M393.868 314.547l27.71 162.547a13.5 13.5 0 01-.046 4.067l-.024.119a13.26 13.26 0 01-1.373 3.971 13.22 13.22 0 01-7.843 6.442c-3.241.986-6.87.737-10.091-.985l-145.502-77.825-144.909 77.503a13.048 13.048 0 01-4.332 1.669c-1.48.285-3.052.315-4.628.06l-.136-.027a13.254 13.254 0 01-8.502-5.321 13.247 13.247 0 01-2.336-9.882l26.741-162.275L4.215 198.002a13.304 13.304 0 01-2.707-3.567 13.263 13.263 0 01-1.376-4.276 13.257 13.257 0 012.537-9.832 13.25 13.25 0 018.745-5.175l159.774-22.883L244.819 7.353a13.313 13.313 0 012.462-3.433 13.212 13.212 0 013.44-2.495 13.276 13.276 0 0110.135-.759 13.23 13.23 0 017.696 6.631l72.978 144.982 159.074 22.869c1.363.196 2.72.617 3.987 1.241 1.218.601 2.369 1.4 3.394 2.399a13.259 13.259 0 014.014 9.335 13.256 13.256 0 01-3.755 9.434l-114.376 116.99z"/><path fill="url(#prefix__a)" d="M408.438 479.015l-28.808-168.89L498.73 188.3l-165.937-23.854L256.7 13.279l-76.805 151.167L13.284 188.3l119.503 121.825-27.827 168.89 151.74-81.162z"/></svg>
